<?xml version="1.0" encoding="utf-8"?>
<!-- Generator: Adobe Illustrator 18.1.1, SVG Export Plug-In . SVG Version: 6.00 Build 0)  -->
<!DOCTYPE svg PUBLIC "-//W3C//DTD SVG 1.1//EN" "http://www.w3.org/Graphics/SVG/1.1/DTD/svg11.dtd">
<svg version="1.1" id="Layer_1" xmlns="http://www.w3.org/2000/svg" xmlns:xlink="http://www.w3.org/1999/xlink" x="0px" y="0px"
	 viewBox="0 0 612 792" enable-background="new 0 0 612 792" xml:space="preserve">
<g>
	<rect x="-1658.5" y="567.4" stroke="#000000" stroke-width="4" stroke-miterlimit="10" width="465.1" height="471.2"/>
	<rect x="-1670.1" y="689.8" fill="none" width="488.4" height="330.5"/>
	<g enable-background="new    ">
		<path fill="#FFFFFF" d="M-1530,749.7c7.3,4.3,13.5,10.4,18.4,17.7v-77.7h41.6v219.7h-40.4v-22.6c-6.1,9.8-12.9,16.5-20.2,20.8
			c-7.3,4.3-17.1,6.7-28.2,6.7c-18.4,0-34.3-8-46.5-23.3c-12.9-15.3-19-34.9-19-59.4c0-27.5,6.1-49.6,18.4-65.5
			c12.2-15.9,28.8-23.9,49.6-23.9C-1545.9,743-1537.3,745.5-1530,749.7z M-1519.6,865.4c6.1-9.2,9.2-20.8,9.2-34.9
			c0-20.2-4.9-34.3-14.7-42.8c-6.1-4.9-12.9-8-20.8-8c-12.2,0-20.8,4.9-26.3,14.1c-5.5,9.2-8.6,20.8-8.6,34.9
			c0,15.3,3.1,26.9,8.6,36.1c5.5,9.2,14.7,13.5,26.3,13.5S-1525.7,874.6-1519.6,865.4z"/>
		<path fill="#FFFFFF" d="M-1299.3,689.8h64.3v220.3h-41.6V761.4c0-4.3,0-10.4,0-17.7c0-8,0-13.5,0-17.7l-40.4,184.8h-43.5
			l-40.4-184.8c0,4.3,0,10.4,0,17.7c0,8,0,13.5,0,17.7v148.7h-41.6V689.8h64.9l39.2,173.2L-1299.3,689.8z"/>
	</g>
</g>
<circle fill="#231F20" cx="311.8" cy="375.8" r="274.2"/>
<g>
	<polygon fill="#FFFFFF" points="309.4,494.5 506.2,494.5 506.2,264.1 	"/>
	<polygon fill="#FFFFFF" points="309.4,264.1 506.2,494.5 309.4,494.5 	"/>
	<g>
		<polygon fill="#FFFFFF" points="299.7,372.6 112.6,494.5 112.6,264.1 		"/>
	</g>
</g>
</svg>
